<?xml version="1.0" encoding="UTF-8"?>
<!DOCTYPE svg PUBLIC "-//W3C//DTD SVG 1.1//EN" "http://www.w3.org/Graphics/SVG/1.1/DTD/svg11.dtd">
<svg xmlns="http://www.w3.org/2000/svg" version="1.1" width="255px" height="197px" style="shape-rendering:geometricPrecision; text-rendering:geometricPrecision; image-rendering:optimizeQuality; fill-rule:evenodd; clip-rule:evenodd" xmlns:xlink="http://www.w3.org/1999/xlink">
<g><path style="opacity:1" fill="#fefefe" d="M -0.5,-0.5 C 84.5,-0.5 169.5,-0.5 254.5,-0.5C 254.5,65.1667 254.5,130.833 254.5,196.5C 169.5,196.5 84.5,196.5 -0.5,196.5C -0.5,130.833 -0.5,65.1667 -0.5,-0.5 Z"/></g>
<g><path style="opacity:1" fill="#d12428" d="M 125.5,30.5 C 131.97,38.4809 138.303,46.6476 144.5,55C 134.661,56.5021 128.161,62.0021 125,71.5C 123.518,80.6162 124.851,89.2828 129,97.5C 137.445,109.447 147.945,119.114 160.5,126.5C 165.781,123.22 170.781,119.553 175.5,115.5C 178.67,132.965 174.003,148.132 161.5,161C 143.97,175.38 124.636,178.38 103.5,170C 78.9671,155.739 70.4671,134.906 78,107.5C 90.8231,79.8291 106.656,54.1624 125.5,30.5 Z"/></g>
<g><path style="opacity:1" fill="#d12527" d="M 141.5,59.5 C 149.128,59.1485 155.461,61.8152 160.5,67.5C 169.747,57.2436 179.247,56.9103 189,66.5C 195.291,82.6853 191.791,96.5186 178.5,108C 172.877,111.955 167.543,116.288 162.5,121C 161.167,121.667 159.833,121.667 158.5,121C 150.015,114.514 142.182,107.347 135,99.5C 127.783,89.0027 126.783,78.0027 132,66.5C 134.529,63.1151 137.696,60.7818 141.5,59.5 Z"/></g>
<g><path style="opacity:1" fill="#fbf5f5" d="M 157.5,78.5 C 163.329,77.9998 165.663,80.6665 164.5,86.5C 168.833,85.5353 171.833,87.0353 173.5,91C 173.241,92.2613 172.574,93.2613 171.5,94C 169.19,94.4966 166.857,94.6633 164.5,94.5C 164.663,96.8568 164.497,99.1902 164,101.5C 161.667,104.167 159.333,104.167 157,101.5C 156.503,99.1902 156.337,96.8568 156.5,94.5C 154.143,94.6633 151.81,94.4966 149.5,94C 146.808,91.3676 147.141,89.0342 150.5,87C 152.473,86.5045 154.473,86.3379 156.5,86.5C 156.279,83.7212 156.612,81.0545 157.5,78.5 Z"/></g>
<g><path style="opacity:1" fill="#fbf6f5" d="M 91.5,109.5 C 94.244,109.2 95.9106,110.367 96.5,113C 95.1983,120.887 95.5316,128.721 97.5,136.5C 94.6391,145.824 91.4725,145.824 88,136.5C 87.3333,129.833 87.3333,123.167 88,116.5C 88.6529,113.861 89.8196,111.527 91.5,109.5 Z"/></g>
</svg>
